<?xml version="1.0" encoding="utf-8"?>
<!-- Generator: Adobe Illustrator 22.0.1, SVG Export Plug-In . SVG Version: 6.00 Build 0)  -->
<svg version="1.1" id="OpenNetCMYK" xmlns="http://www.w3.org/2000/svg" xmlns:xlink="http://www.w3.org/1999/xlink" x="0px"
	 y="0px" viewBox="0 0 289.1 113.4" style="enable-background:new 0 0 289.1 113.4;" xml:space="preserve">
<style type="text/css">
	.st0{fill:#FFFFFF;}
</style>
<path class="st0" d="M121.1,55v1h-10.6c0.2-2.9,0.6-5.1,1.5-6.4c0.8-1.3,2.2-2,4-2c1.9,0,3.2,0.6,3.9,1.9
	C120.7,50.8,121.1,52.6,121.1,55z M235.5,49.5c-0.8-1.3-2.1-1.9-3.9-1.9c-1.9,0-3.2,0.7-4,2c-0.8,1.3-1.3,3.5-1.5,6.4h10.6v-1
	C236.6,52.6,236.2,50.8,235.5,49.5z M23.3,72.3c-2.2-3.7-3.4-8.5-3.4-14.2v-9.4c0-7.5,1.7-13.4,5.2-17.6c3.5-4.2,8.3-6.3,14.5-6.3
	c6.1,0,10.9,2.1,14.4,6.2c3.5,4.2,5.3,10,5.3,17.5v9.4c0,5.9-1.1,10.7-3.3,14.5h8.1V39.5H74l0.4,3.7c2-3,4.8-4.5,8.3-4.5
	c4.3,0,7.6,1.6,9.8,4.7c2.2,3.2,3.3,8,3.4,14.5v3.1c0,4.4-0.5,8.1-1.6,11.1h7.5c-1.3-2.8-2-6.2-2-10.2v-3.2c0-6.4,1.4-11.4,4.2-14.9
	c2.8-3.5,6.8-5.2,12.1-5.2c5.1,0,9,1.6,11.5,4.9c2.6,3.3,3.9,8.1,3.9,14.5v5.2h-21.2c0.2,3,0.8,5.2,2,6.6c1.2,1.4,3,2.2,5.4,2.2
	c3.6,0,6.3,0,9,0h9.1V39.5h10.3l0,4c2-2.6,4.5-4.2,7.5-4.6c0.6-0.1,1.3-0.1,2-0.1c7,0,10.6,4.9,10.8,14.7v18.8h5.8V25.5h11.1
	l16.2,36v-36h11v46.8h6.8c-1.3-2.8-2-6.2-2-10.2v-3.2c0-6.4,1.4-11.4,4.2-14.9c2.8-3.5,6.8-5.2,12.1-5.2c5.1,0,9,1.6,11.5,4.9
	c2.6,3.3,3.9,8.1,3.9,14.5v5.2H226c0.2,3,0.8,5.2,2,6.6c1.2,1.4,3,2.2,5.5,2.2c3.6,0,6.5,0,8.9,0h11.6c-0.1-0.9-0.2-2-0.2-3.1V47.5
	H249v-8h4.7v-10h10.6v10h5.5v8h-5.5v20.2c0,1.6,0.2,2.7,0.7,3.3c0.4,0.6,1.2,1.2,2.5,1.2c1,0,1.7,0,2.6,0h19.1V0H0l0,72.3L23.3,72.3
	z M39.7,71.8c2.9,0,5-1.1,6.4-3.3c1.4-2.2,2.1-5.7,2.1-10.3v-9.5c0-4.9-0.7-8.6-2.1-11c-1.4-2.4-3.6-3.6-6.5-3.6
	c-2.9,0-5.1,1.2-6.5,3.5c-1.4,2.3-2.1,5.8-2.2,10.6v9.7c0,4.8,0.7,8.3,2.1,10.6C34.5,70.6,36.7,71.8,39.7,71.8z M84,69.5
	c0.8-1.8,1.2-4.6,1.2-8.3v-2.7c0-3.9-0.4-6.7-1.3-8.4c-0.9-1.6-2.3-2.4-4.4-2.4c-2.2,0-3.8,0.9-4.8,2.7v19.1c1,1.8,2.6,2.7,4.9,2.7
	C81.8,72.3,83.2,71.3,84,69.5z M270.1,80.2c-1.9,0-3.9,0-6,0h-28c-1.1,0-2.1,0-3.3,0h-22.3h-11h0l-3.6-8l0,0l0,0l-12.6-27.9v35.9h0
	h-11.1h-5.8h-10.7v-8v-18c0-2.3-0.3-4-1-5c-0.7-1-1.9-1.6-3.6-1.6c-1.9,0-3.4,1-4.5,3v29.6H146h-10.1h-15.5c-1.1,0-2.2,0-3.3,0H74.8
	v13.3H64.4l0-13.3L0,80.2v33.2h289.1V80.2H270.1z"/>
</svg>
